HIERARCHY
ROOT SimulationBone
{
	OFFSET 0.000000 0.000000 0.000000
	CHANNELS 6 Xposition Yposition Zposition Zrotation Yrotation Xrotation 
	JOINT Hips
	{
		OFFSET 0.000000 0.000000 0.000000
		CHANNELS 6 Xposition Yposition Zposition Zrotation Yrotation Xrotation 
		JOINT RightUpLeg
		{
			OFFSET 0.103458 1.857820 10.548502
			CHANNELS 3 Zrotation Yrotation Xrotation
			JOINT RightLeg
			{
				OFFSET 43.500000 -0.000023 -0.000011
				CHANNELS 3 Zrotation Yrotation Xrotation
				JOINT RightFoot
				{
					OFFSET 42.372192 0.000038 0.000002
					CHANNELS 3 Zrotation Yrotation Xrotation
					JOINT RightToe
					{
						OFFSET 17.299992 -0.000004 0.000006
						CHANNELS 3 Zrotation Yrotation Xrotation
						End Site
						{
							OFFSET 0.000000 0.000000 0.000000
						}
					}
				}
			}
		}
		JOINT LeftUpLeg
		{
			OFFSET 0.103461 1.857814 -10.548508
			CHANNELS 3 Zrotation Yrotation Xrotation
			JOINT LeftLeg
			{
				OFFSET 43.500042 -0.000015 0.000008
				CHANNELS 3 Zrotation Yrotation Xrotation
				JOINT LeftFoot
				{
					OFFSET 42.372253 0.000008 0.000006
					CHANNELS 3 Zrotation Yrotation Xrotation
					JOINT LeftToe
					{
						OFFSET 17.299973 -0.000014 0.000011
						CHANNELS 3 Zrotation Yrotation Xrotation
						End Site
						{
							OFFSET 0.000000 0.000000 0.000000
						}
					}
				}
			}
		}
		JOINT Spine
		{
			OFFSET 6.901966 -2.603737 -0.000007
			CHANNELS 3 Zrotation Yrotation Xrotation
			JOINT Spine1
			{
				OFFSET 12.588102 0.000017 0.000001
				CHANNELS 3 Zrotation Yrotation Xrotation
				JOINT Spine2
				{
					OFFSET 12.343197 -0.000013 0.000000
					CHANNELS 3 Zrotation Yrotation Xrotation
					JOINT Neck
					{
						OFFSET 25.832905 -0.000008 0.000000
						CHANNELS 3 Zrotation Yrotation Xrotation
						JOINT Head
						{
							OFFSET 11.766610 0.000009 -0.000002
							CHANNELS 3 Zrotation Yrotation Xrotation
							End Site
							{
								OFFSET 0.000000 0.000000 0.000000
							}
						}
					}
					JOINT RightShoulder
					{
						OFFSET 19.745903 -1.480377 6.000115
						CHANNELS 3 Zrotation Yrotation Xrotation
						JOINT RightArm
						{
							OFFSET 11.284125 -0.000014 -0.000024
							CHANNELS 3 Zrotation Yrotation Xrotation
							JOINT RightForeArm
							{
								OFFSET 33.000046 -0.000012 0.000029
								CHANNELS 3 Zrotation Yrotation Xrotation
								JOINT RightHand
								{
									OFFSET 25.199989 0.000034 0.000012
									CHANNELS 3 Zrotation Yrotation Xrotation
									End Site
									{
										OFFSET 0.000000 0.000000 0.000000
									}
								}
							}
						}
					}
					JOINT LeftShoulder
					{
						OFFSET 19.746098 -1.480362 -6.000071
						CHANNELS 3 Zrotation Yrotation Xrotation
						JOINT LeftArm
						{
							OFFSET 11.284137 -0.000006 -0.000008
							CHANNELS 3 Zrotation Yrotation Xrotation
							JOINT LeftForeArm
							{
								OFFSET 33.000095 0.000017 0.000000
								CHANNELS 3 Zrotation Yrotation Xrotation
								JOINT LeftHand
								{
									OFFSET 25.199778 0.000144 0.000423
									CHANNELS 3 Zrotation Yrotation Xrotation
									End Site
									{
										OFFSET 0.000000 0.000000 0.000000
									}
								}
							}
						}
					}
				}
			}
		}
	}
}
MOTION
Frames: 10
Frame Time: 0.016667
-333.489382 0.000000 91.723797 180.000000 -85.650835 180.000000 1.787175 89.518387 2.806787 99.140705 6.594588 -179.072990 157.754776 -8.327909 169.570812 -71.623897 -2.037357 -5.394252 71.196539 3.861203 -0.211341 21.454555 0.003096 0.000016 -179.165356 -0.674897 178.438310 -22.074768 5.410084 3.751699 76.994604 -1.695041 4.021016 21.454551 -0.003087 0.000001 9.058479 1.075994 0.120715 8.108486 2.140926 0.316480 7.790147 2.142648 0.303544 13.443090 2.009596 11.640809 -3.096442 -14.964183 15.600992 -162.145630 -70.887539 -19.756227 -8.179046 58.981489 19.771477 -28.667051 -17.778067 1.407799 16.834395 -8.615598 -2.131173 -176.262853 78.033390 5.334488 -31.031273 -48.337873 -0.905143 -73.791983 14.655224 -2.625975 18.085543 -3.819374 -74.117380 
-333.732501 0.000000 93.584486 180.000000 -86.042795 180.000000 1.655903 89.511609 2.831199 98.773099 6.634960 -179.289053 155.882336 -8.500574 169.836331 -67.996810 -2.996901 -5.939058 71.165096 4.253045 -0.298533 21.454557 0.003099 0.000016 -177.897958 -0.772932 178.532037 -21.321553 5.354205 3.799215 77.759465 -1.743270 4.044309 21.454551 -0.003094 -0.000002 9.010806 1.034637 0.335323 8.016657 2.043626 0.741527 7.698366 2.047924 0.729171 13.136061 2.007673 11.662160 -3.131825 -15.193056 15.679956 -161.062512 -70.682016 -20.874548 -5.951683 57.414077 21.961960 -28.113195 -17.230904 1.361556 16.309917 -5.651799 -6.341491 -177.812609 78.422898 3.761265 -32.675956 -46.996363 0.697870 -75.106659 13.941996 -2.632350 16.164416 -4.004724 -69.986450 
-333.932027 0.000000 95.458089 180.000000 -86.463899 180.000000 1.534322 89.442673 2.866402 98.424301 6.699899 -179.586801 154.436095 -8.623193 170.179942 -63.596532 -4.005663 -6.797851 71.048030 4.889914 -0.345738 21.454560 0.003106 0.000016 -176.626575 -0.893295 178.711080 -20.636633 5.215398 3.771885 78.590170 -1.732349 4.099759 21.454553 -0.003099 -0.000004 8.976040 1.000125 0.545840 7.950315 1.960479 1.159166 7.632088 1.967311 1.147301 12.727258 1.917618 11.718454 -3.101972 -15.304903 15.751839 -159.865426 -70.440605 -22.111498 -3.990494 55.795335 24.151833 -27.798785 -16.786015 1.328665 15.062741 -3.268505 -8.170045 -179.260664 78.787210 2.293103 -34.175482 -45.511670 2.182137 -76.347013 13.235157 -2.635122 14.240786 -4.123211 -65.391226 
-334.092850 0.000000 97.344612 180.000000 -86.919766 180.000000 1.434502 89.326015 2.917645 98.151183 6.799358 -179.931948 153.537204 -8.727663 170.610130 -58.374187 -5.053476 -7.834528 70.995273 5.689869 -0.282206 21.454559 0.003106 0.000018 -175.243338 -1.066418 178.996186 -19.938825 4.968218 3.686397 79.427911 -1.668353 4.205501 21.454553 -0.003096 -0.000003 8.968765 0.981719 0.741057 7.938701 1.910414 1.547837 7.620539 1.919591 1.536261 12.246554 1.585891 11.862609 -3.151362 -15.078469 15.831321 -158.462398 -70.200868 -23.561502 -2.281105 54.325271 26.254097 -27.833280 -16.505286 1.312362 13.680495 -2.143240 -7.149919 179.522090 79.365455 1.065157 -35.735182 -44.161128 3.778022 -77.542001 12.619241 -2.642869 12.394564 -4.317298 -60.777530 
-334.220196 0.000000 99.241442 180.000000 -87.415196 180.000000 1.348998 89.177567 2.977184 97.931121 6.956129 179.723580 153.166103 -8.791594 170.934432 -52.302138 -5.845158 -8.906234 70.937954 6.419416 -0.463757 21.454558 0.003104 0.000020 -173.721395 -1.316896 179.239846 -19.103998 4.677306 3.646519 80.179405 -1.614560 4.395298 21.454553 -0.003090 -0.000000 8.978682 0.992893 0.910417 7.961481 1.920952 1.887161 7.643376 1.932169 1.875517 11.818700 1.073205 12.039034 -3.431254 -14.698620 15.928478 -157.073012 -69.945676 -24.998613 -0.673701 53.057877 28.249183 -28.249171 -16.441498 1.314907 12.599933 -2.135231 -3.628055 178.044904 80.042775 -0.422440 -37.168806 -42.861734 5.353354 -78.653090 12.043977 -2.650719 10.612678 -4.369973 -56.522003 
-334.319034 0.000000 101.144563 180.000000 -87.953597 180.000000 1.268884 89.009550 3.032608 97.730112 7.173216 179.414705 153.272904 -8.770972 170.894573 -45.426364 -6.100798 -9.830526 70.766725 6.881152 -1.135572 21.454557 0.003105 0.000020 -172.067211 -1.632542 179.262692 -18.050389 4.430087 3.762729 80.778806 -1.644482 4.684729 21.454553 -0.003089 0.000001 8.992399 1.038250 1.047882 7.992119 2.001814 2.165192 7.674058 2.014705 2.153069 11.549226 0.513660 12.178437 -4.016427 -14.413951 16.049576 -155.937713 -69.679107 -26.174836 0.959471 52.008600 30.142757 -28.985892 -16.616707 1.338832 12.002943 -2.958005 1.599289 175.820832 80.626433 -2.666341 -38.251271 -41.492541 6.737265 -79.651750 11.442781 -2.651542 8.930512 -4.099456 -52.937271 
-334.393548 0.000000 103.051123 180.000000 -88.536260 180.000000 1.193799 88.817833 3.066644 97.550804 7.364917 179.108746 153.822334 -8.580596 170.171786 -38.022883 -5.814530 -10.486321 70.464117 7.178887 -1.660959 21.454558 0.003107 0.000018 -170.343647 -1.884389 178.932993 -16.904450 4.323657 4.085185 81.305184 -1.814835 5.007045 21.454553 -0.003091 0.000001 9.008833 1.082296 1.164763 8.028000 2.081349 2.402078 7.709980 2.095667 2.389482 11.368052 0.127496 12.278318 -4.668756 -14.324092 16.196738 -155.078679 -69.515716 -27.064514 2.576770 51.199240 32.036772 -29.682700 -16.940396 1.373830 11.605607 -4.271246 6.788142 173.220099 81.001877 -5.293271 -38.982535 -40.077964 7.952046 -80.618265 10.817106 -2.649815 7.501320 -3.795506 -50.056307 
-334.445343 0.000000 104.960441 180.000000 -89.160728 180.000000 1.124472 88.598722 3.070858 97.406514 7.462203 178.781791 154.732203 -8.147532 168.725896 -30.472447 -5.158123 -10.906776 70.093659 7.517804 -1.480456 21.454559 0.003109 0.000017 -168.629004 -1.970665 178.224822 -15.840188 4.403069 4.614195 81.824038 -2.140021 5.306465 21.454552 -0.003095 0.000000 9.028754 1.095305 1.271104 8.070030 2.099478 2.615823 7.752060 2.115083 2.603109 11.189638 0.066575 12.355028 -5.143620 -14.452401 16.369903 -154.423161 -69.551139 -27.739842 4.105143 50.649155 33.954621 -30.009021 -17.285795 1.402825 11.206221 -5.688820 10.346181 170.876184 81.145137 -7.663952 -39.430620 -38.705987 9.067095 -81.627341 10.191870 -2.650403 6.398686 -3.751110 -47.911597 
-334.475150 0.000000 106.872538 180.000000 -89.820597 180.000000 1.061064 88.366631 3.068057 97.305281 7.551888 178.500602 155.751645 -7.557692 167.673194 -23.423205 -4.617527 -11.706441 69.928719 8.179911 -1.227601 21.454560 0.003110 0.000017 -167.002660 -2.040999 177.456593 -15.022711 4.500474 5.192360 82.202835 -2.483456 5.656937 21.454551 -0.003097 -0.000000 9.048596 1.110814 1.354636 8.111601 2.124115 2.784178 7.793668 2.140737 2.771301 11.041337 0.120200 12.430649 -5.478669 -14.662299 16.551603 -153.787118 -69.702009 -28.392031 5.513248 50.365599 35.499491 -30.061793 -17.491175 1.416423 10.995904 -6.797544 12.230802 168.768673 81.264272 -9.794671 -39.717361 -37.591335 10.151576 -82.623889 9.618699 -2.653226 5.402083 -3.783402 -46.885573 
-334.485888 0.000000 108.786439 0.000000 -89.491199 0.000000 1.007486 88.126360 3.079675 97.252703 7.727690 178.341949 156.634567 -6.956898 167.994127 -17.573011 -4.472995 -13.431792 70.228456 9.326561 -1.528614 21.454559 0.003111 0.000016 -165.535757 -2.265508 176.983308 -14.628124 4.458012 5.633402 82.340376 -2.694109 6.131008 21.454550 -0.003096 0.000001 9.065052 1.164898 1.400540 8.146860 2.228456 2.880048 7.828929 2.245666 2.866535 10.962502 0.061484 12.523360 -5.758831 -14.815307 16.722461 -153.039577 -69.847410 -29.158828 6.787188 50.330024 36.313212 -30.000912 -17.441256 1.411939 11.177777 -7.261246 12.690062 166.625060 81.532486 -11.955277 -39.944233 -36.900056 11.239494 -83.544389 9.141068 -2.659705 4.312822 -3.683066 -47.308821 
